<svg width="14" height="8" viewBox="0 0 14 8" fill="none" xmlns="http://www.w3.org/2000/svg">
<path d="M7.27986 7.99998C7.10451 8.00099 6.93068 7.96738 6.76834 7.90107C6.606 7.83477 6.45834 7.73707 6.33384 7.61358L1.00416 2.28389C0.879926 2.15966 0.781379 2.01217 0.714145 1.84985C0.64691 1.68754 0.612305 1.51356 0.612305 1.33787C0.612305 1.16218 0.64691 0.988208 0.714145 0.82589C0.781379 0.663572 0.879926 0.516086 1.00416 0.391853C1.12839 0.26762 1.27588 0.169073 1.4382 0.101839C1.60051 0.0346042 1.77449 -2.61801e-09 1.95018 0C2.12587 2.61802e-09 2.29984 0.0346042 2.46216 0.101839C2.62448 0.169073 2.77196 0.26762 2.8962 0.391853L7.27986 4.80217L11.6769 0.565068C11.7994 0.428775 11.9488 0.319238 12.1156 0.243309C12.2825 0.16738 12.4632 0.126691 12.6465 0.123787C12.8297 0.120884 13.0116 0.155827 13.1808 0.226433C13.35 0.297039 13.5027 0.40179 13.6296 0.534132C13.7564 0.666474 13.8545 0.823561 13.9179 0.995569C13.9812 1.16758 14.0084 1.3508 13.9977 1.53379C13.987 1.71678 13.9387 1.8956 13.8557 2.05905C13.7728 2.22251 13.657 2.36709 13.5156 2.48375L8.18591 7.6269C7.94224 7.86183 7.6183 7.99521 7.27986 7.99998Z" fill="#CBD4DB"/>
</svg>
